<svg width="486" height="128" viewBox="0 0 486 128" fill="none" xmlns="http://www.w3.org/2000/svg">
<path d="M484.267 35.2485C484.694 38.8136 483.565 42.5587 480.869 46.4626C478.168 50.3734 473.93 54.3894 468.255 58.4428C456.906 66.549 439.987 74.6829 418.711 82.3717C376.174 97.7439 316.437 111.262 249.588 119.263C182.739 127.264 121.499 128.225 76.5361 123.325C54.0467 120.875 35.6859 116.963 22.7445 111.764C16.2734 109.165 11.2067 106.262 7.65949 103.099C4.11853 99.942 2.13758 96.5691 1.71088 93.004C1.28419 89.4389 2.4132 85.6937 5.10902 81.7899C7.80962 77.8791 12.0482 73.8631 17.7231 69.8097C29.072 61.7035 45.9912 53.5696 67.267 45.8807C109.803 30.5086 169.541 16.9904 236.39 8.98949C303.239 0.988571 364.479 0.02729 409.442 4.927C431.931 7.37774 450.292 11.2891 463.233 16.4881C469.704 19.0877 474.771 21.99 478.318 25.153C481.859 28.3104 483.84 31.6834 484.267 35.2485Z" stroke="url(#paint0_linear_4_27)" stroke-width="2"/>
<defs>
<linearGradient id="paint0_linear_4_27" x1="495.222" y1="38.4301" x2="-35.1348" y2="88.3203" gradientUnits="userSpaceOnUse">
<stop stop-color="#4269F6"/>
<stop offset="1" stop-color="#D5F60C" stop-opacity="0"/>
</linearGradient>
</defs>
</svg>
