<svg width="33" height="32" viewBox="0 0 33 32" fill="none" xmlns="http://www.w3.org/2000/svg">
<circle cx="16.5" cy="16" r="16" fill="#4269F6"/>
<path d="M8.5 12.3333V10.6667C8.5 10.2083 8.6666 9.81611 8.9998 9.49C9.333 9.16389 9.73307 9.00056 10.2 9H23.8C24.2675 9 24.6678 9.16333 25.001 9.49C25.3342 9.81667 25.5006 10.2089 25.5 10.6667V12.3333H23.8V10.6667H10.2V12.3333H8.5ZM13.6 24V22.3333H10.2C9.7325 22.3333 9.33243 22.1703 8.9998 21.8442C8.66717 21.5181 8.50057 21.1256 8.5 20.6667V19H10.2V20.6667H23.8V19H25.5V20.6667C25.5 21.125 25.3337 21.5175 25.001 21.8442C24.6684 22.1708 24.2681 22.3339 23.8 22.3333H20.4V24H13.6ZM10.88 15.6667L13.09 13.5L11.9 12.3333L8.5 15.6667L11.9 19L13.09 17.8333L10.88 15.6667ZM23.12 15.6667L20.91 17.8333L22.1 19L25.5 15.6667L22.1 12.3333L20.91 13.5L23.12 15.6667Z" fill="white"/>
</svg>
