<svg width="32" height="32" viewBox="0 0 32 32" fill="none" xmlns="http://www.w3.org/2000/svg">
<circle cx="16" cy="16" r="16" fill="#4BFFA5"/>
<path d="M11.952 10.3999C11.9518 10.8242 11.783 11.2311 11.4828 11.531C11.1826 11.8309 10.7755 11.9993 10.3512 11.9991C9.92684 11.9989 9.51996 11.8301 9.22005 11.5299C8.92014 11.2297 8.75177 10.8226 8.75198 10.3983C8.7522 9.97393 8.92097 9.56704 9.22118 9.26714C9.52139 8.96723 9.92844 8.79886 10.3528 8.79907C10.7771 8.79928 11.184 8.96806 11.4839 9.26827C11.7838 9.56848 11.9522 9.97553 11.952 10.3999ZM12 13.1839H8.79998V23.1999H12V13.1839ZM17.056 13.1839H13.872V23.1999H17.024V17.9439C17.024 15.0159 20.84 14.7439 20.84 17.9439V23.1999H24V16.8559C24 11.9199 18.352 12.1039 17.024 14.5279L17.056 13.1839Z" fill="#23252A"/>
</svg>
