<svg width="32" height="32" viewBox="0 0 32 32" fill="none" xmlns="http://www.w3.org/2000/svg">
<circle cx="16" cy="16" r="16" fill="#4BFFA5"/>
<path d="M16 8C14.9494 8 13.9091 8.20693 12.9385 8.60896C11.9679 9.011 11.086 9.60028 10.3431 10.3431C8.84285 11.8434 8 13.8783 8 16C8 19.536 10.296 22.536 13.472 23.6C13.872 23.664 14 23.416 14 23.2V21.848C11.784 22.328 11.312 20.776 11.312 20.776C10.944 19.848 10.424 19.6 10.424 19.6C9.696 19.104 10.48 19.12 10.48 19.12C11.28 19.176 11.704 19.944 11.704 19.944C12.4 21.16 13.576 20.8 14.032 20.608C14.104 20.088 14.312 19.736 14.536 19.536C12.76 19.336 10.896 18.648 10.896 15.6C10.896 14.712 11.2 14 11.72 13.432C11.64 13.232 11.36 12.4 11.8 11.32C11.8 11.32 12.472 11.104 14 12.136C14.632 11.96 15.32 11.872 16 11.872C16.68 11.872 17.368 11.96 18 12.136C19.528 11.104 20.2 11.32 20.2 11.32C20.64 12.4 20.36 13.232 20.28 13.432C20.8 14 21.104 14.712 21.104 15.6C21.104 18.656 19.232 19.328 17.448 19.528C17.736 19.776 18 20.264 18 21.008V23.2C18 23.416 18.128 23.672 18.536 23.6C21.712 22.528 24 19.536 24 16C24 14.9494 23.7931 13.9091 23.391 12.9385C22.989 11.9679 22.3997 11.086 21.6569 10.3431C20.914 9.60028 20.0321 9.011 19.0615 8.60896C18.0909 8.20693 17.0506 8 16 8Z" fill="#23252A"/>
</svg>
