<svg width="32" height="32" viewBox="0 0 32 32" fill="none" xmlns="http://www.w3.org/2000/svg">
<circle cx="16" cy="16" r="16" fill="#4BFFA5"/>
<path d="M16.8224 8.00074C17.4062 7.9985 17.99 8.00437 18.5736 8.01834L18.7288 8.02394C18.908 8.03034 19.0848 8.03834 19.2984 8.04794C20.1496 8.08794 20.7304 8.22234 21.24 8.41994C21.768 8.62314 22.2128 8.89834 22.6576 9.34314C23.0643 9.74283 23.3791 10.2263 23.58 10.7599C23.7776 11.2695 23.912 11.8511 23.952 12.7023C23.9616 12.9151 23.9696 13.0927 23.976 13.2719L23.9808 13.4271C23.995 14.0105 24.0012 14.594 23.9992 15.1775L24 15.7743V16.8223C24.002 17.4061 23.9958 17.9899 23.9816 18.5735L23.9768 18.7287C23.9704 18.9079 23.9624 19.0847 23.9528 19.2983C23.9128 20.1495 23.7768 20.7303 23.58 21.2399C23.3797 21.7741 23.0649 22.258 22.6576 22.6575C22.2576 23.0642 21.7739 23.3789 21.24 23.5799C20.7304 23.7775 20.1496 23.9119 19.2984 23.9519C19.0848 23.9615 18.908 23.9695 18.7288 23.9759L18.5736 23.9807C17.99 23.995 17.4062 24.0011 16.8224 23.9991L16.2256 23.9999H15.1784C14.5946 24.0019 14.0108 23.9958 13.4272 23.9815L13.272 23.9767C13.0821 23.9699 12.8922 23.9619 12.7024 23.9527C11.8512 23.9127 11.2704 23.7767 10.76 23.5799C10.2262 23.3794 9.74259 23.0646 9.3432 22.6575C8.93604 22.2578 8.62098 21.774 8.42 21.2399C8.2224 20.7303 8.088 20.1495 8.048 19.2983C8.03909 19.1085 8.03109 18.9186 8.024 18.7287L8.02 18.5735C8.00525 17.9899 7.99859 17.4061 8 16.8223V15.1775C7.99777 14.594 8.00364 14.0105 8.0176 13.4271L8.0232 13.2719C8.0296 13.0927 8.0376 12.9151 8.0472 12.7023C8.0872 11.8503 8.2216 11.2703 8.4192 10.7599C8.6203 10.226 8.93598 9.7427 9.344 9.34394C9.74312 8.93654 10.2264 8.6212 10.76 8.41994C11.2704 8.22234 11.8504 8.08794 12.7024 8.04794L13.272 8.02394L13.4272 8.01994C14.0106 8.0052 14.5941 7.99853 15.1776 7.99994L16.8224 8.00074ZM16 12.0007C15.47 11.9932 14.9438 12.0912 14.452 12.2888C13.9602 12.4864 13.5125 12.7798 13.1351 13.152C12.7576 13.5241 12.4579 13.9676 12.2534 14.4566C12.0488 14.9455 11.9434 15.4703 11.9434 16.0003C11.9434 16.5304 12.0488 17.0552 12.2534 17.5441C12.4579 18.0331 12.7576 18.4766 13.1351 18.8487C13.5125 19.2208 13.9602 19.5143 14.452 19.7119C14.9438 19.9095 15.47 20.0074 16 19.9999C17.0609 19.9999 18.0783 19.5785 18.8284 18.8284C19.5786 18.0782 20 17.0608 20 15.9999C20 14.9391 19.5786 13.9217 18.8284 13.1715C18.0783 12.4214 17.0609 12.0007 16 12.0007ZM16 13.6007C16.3188 13.5949 16.6356 13.6526 16.9318 13.7705C17.2281 13.8884 17.4979 14.0642 17.7254 14.2876C17.953 14.5109 18.1337 14.7774 18.2572 15.0714C18.3806 15.3654 18.4442 15.6811 18.4442 15.9999C18.4443 16.3188 18.3808 16.6345 18.2575 16.9285C18.1342 17.2226 17.9535 17.4891 17.726 17.7125C17.4985 17.936 17.2288 18.1118 16.9326 18.2299C16.6364 18.3479 16.3196 18.4057 16.0008 18.3999C15.3643 18.3999 14.7538 18.1471 14.3037 17.697C13.8537 17.2469 13.6008 16.6365 13.6008 15.9999C13.6008 15.3634 13.8537 14.753 14.3037 14.3029C14.7538 13.8528 15.3643 13.5999 16.0008 13.5999L16 13.6007ZM20.2 10.8007C19.9419 10.8111 19.6978 10.9209 19.5189 11.1071C19.3399 11.2934 19.24 11.5416 19.24 11.7999C19.24 12.0582 19.3399 12.3065 19.5189 12.4928C19.6978 12.679 19.9419 12.7888 20.2 12.7991C20.4652 12.7991 20.7196 12.6938 20.9071 12.5062C21.0946 12.3187 21.2 12.0644 21.2 11.7991C21.2 11.5339 21.0946 11.2796 20.9071 11.092C20.7196 10.9045 20.4652 10.7991 20.2 10.7991V10.8007Z" fill="#23252A"/>
</svg>
