<svg width="28" height="28" viewBox="0 0 28 28" fill="none" xmlns="http://www.w3.org/2000/svg">
<path d="M9.33333 6.22222V21.7778H18.6667V18.6667H12.4444V6.22222H9.33333ZM3.11111 0H24.8889C25.714 0 26.5053 0.327777 27.0888 0.911223C27.6722 1.49467 28 2.28599 28 3.11111V24.8889C28 25.714 27.6722 26.5053 27.0888 27.0888C26.5053 27.6722 25.714 28 24.8889 28H3.11111C2.28599 28 1.49467 27.6722 0.911223 27.0888C0.327777 26.5053 0 25.714 0 24.8889V3.11111C0 2.28599 0.327777 1.49467 0.911223 0.911223C1.49467 0.327777 2.28599 0 3.11111 0Z" fill="#4269F6"/>
</svg>
