<svg width="234" height="80" viewBox="0 0 234 80" fill="none" xmlns="http://www.w3.org/2000/svg">
<path d="M122.5 37.7609L122.144 37.4094L122.5 37.7609ZM154.5 77.2607L154.602 77.7503L154.5 77.2607ZM231.986 5.64172C231.92 5.37351 231.649 5.20938 231.381 5.27512L227.01 6.34635C226.742 6.41209 226.578 6.6828 226.644 6.951C226.709 7.21921 226.98 7.38334 227.248 7.3176L231.133 6.36539L232.086 10.2504C232.151 10.5186 232.422 10.6827 232.69 10.617C232.958 10.5513 233.123 10.2806 233.057 10.0124L231.986 5.64172ZM0.760964 38.2001C13.9715 45.3906 35.9089 54.016 58.8204 56.5329C81.7281 59.0494 105.703 55.4664 122.856 38.1124L122.144 37.4094C105.297 54.4554 81.6886 58.0391 58.9296 55.5389C36.1744 53.0391 14.3618 44.4645 1.23904 37.3217L0.760964 38.2001ZM122.856 38.1124C133.506 27.3371 137.124 18.769 136.214 12.4742C135.295 6.12125 129.82 2.33878 122.969 1.02946C116.106 -0.282173 107.713 0.841502 100.619 4.41908C93.5167 8.00052 87.6704 14.0679 86.0091 22.666L86.9909 22.8557C88.5796 14.6335 94.1708 8.79062 101.069 5.31197C107.975 1.82948 116.144 0.743204 122.781 2.01168C129.43 3.28246 134.393 6.87016 135.224 12.6173C136.064 18.4226 132.744 26.6847 122.144 37.4094L122.856 38.1124ZM86.0091 22.666C82.7175 39.7015 90.1955 55.5028 103.312 66.0163C116.427 76.5283 135.204 81.781 154.602 77.7503L154.398 76.7712C135.296 80.7405 116.823 75.5637 103.938 65.236C91.0545 54.9097 83.7825 39.4612 86.9909 22.8557L86.0091 22.666ZM154.602 77.7503C170.16 74.5175 186.291 61.8355 200.099 47.3938C213.924 32.9342 225.495 16.6291 231.928 6.01997L231.072 5.50152C224.671 16.0591 213.143 32.304 199.376 46.7027C185.592 61.1194 169.64 73.604 154.398 76.7712L154.602 77.7503Z" fill="#8EA5FA"/>
</svg>
