<svg width="101" height="54" viewBox="0 0 101 54" fill="none" xmlns="http://www.w3.org/2000/svg">
<path d="M99.6736 53.8459C99.9497 53.85 100.177 53.6295 100.181 53.3534L100.248 48.8539C100.252 48.5778 100.031 48.3506 99.7552 48.3465C99.479 48.3424 99.2519 48.563 99.2478 48.8391L99.1885 52.8386L95.1889 52.7793C94.9128 52.7752 94.6857 52.9957 94.6816 53.2719C94.6775 53.548 94.898 53.7751 95.1741 53.7792L99.6736 53.8459ZM55.9537 8.30239L55.595 8.65066L55.9537 8.30239ZM0.678172 1.46396L20.28 17.9497L20.9237 17.1844L1.32183 0.698641L0.678172 1.46396ZM35.0169 16.7399L41.5599 9.09201L40.8001 8.44192L34.2571 16.0898L35.0169 16.7399ZM55.595 8.65066L99.3223 53.6943L100.04 52.9977L56.3125 7.95412L55.595 8.65066ZM41.5599 9.09201C45.1961 4.84185 51.699 4.63736 55.595 8.65066L56.3125 7.95412C52.0064 3.51837 44.819 3.74438 40.8001 8.44192L41.5599 9.09201ZM20.28 17.9497C24.6916 21.66 31.2695 21.12 35.0169 16.7399L34.2571 16.0898C30.8666 20.0528 24.9151 20.5414 20.9237 17.1844L20.28 17.9497Z" fill="#8EA5FA"/>
</svg>
